<?xml version="1.0" encoding="UTF-8"?>
<svg id="Layer_1" data-name="Layer 1" xmlns="http://www.w3.org/2000/svg" viewBox="0 0 240 240">
  <defs>
    <style>
      .cls-1 {
        fill: #fff;
        stroke-width: 0px;
      }
    </style>
  </defs>
  <path class="cls-1" d="M171.81,182.19c-4.16-7.03-8.14-13.74-12.71-21.44-6.66,10.26-12.91,19.91-19.83,30.59-29.89-51.58-59.28-102.28-89.25-153.99-14.74,25.52-28.96,50.12-43.74,75.7-.05-33.45,22.69-78.33,68.83-98.26,44.02-19.02,95.33-6.98,124.45,22.49h-119.5c18.07,30.67,35.45,60.15,53.17,90.22,6.38-10.1,12.34-19.32,17.96-28.73.76-1.28.4-3.88-.41-5.33-3.48-6.25-7.33-12.28-11-18.42-.81-1.36-1.43-2.84-2.44-4.88h62.73c-1.08,2.22-1.81,3.99-2.76,5.63-9.82,17-19.58,34.03-29.58,50.92-2.05,3.47-1.99,6.05.13,9.53,11.92,19.62,23.5,39.45,35.4,59.09,1.9,3.13,1.92,4.96-.81,7.62-11.99,11.66-25.7,20.53-41.31,26.49-1.24.47-2.53.83-3.81,1.17-.42.11-.91-.03-2.09-.1,1.04-2.08,1.8-3.85,2.77-5.49,5.16-8.74,10.1-17.63,15.67-26.1,3.13-4.76,4.04-8.84.1-13.36-.75-.86-1.21-1.98-1.98-3.31Z"/>
  <path class="cls-1" d="M42.87,114.88c2.21-3.92,4.25-7.51,6.87-12.11,25.95,44.81,51.44,88.82,77.7,134.17-8.02-.43-14.98-.23-21.74-1.27-41.28-6.37-71.31-28.23-89.82-65.83-1.43-2.91-1.27-5.06.29-7.78,8.93-15.57,17.7-31.23,26.7-47.18Z"/>
  <path class="cls-1" d="M210.35,117.34c6.48-11.12,12.75-21.93,19.66-33.83,10.12,30.1,8.09,58.08-4.44,86.71-2.98-5-5.42-9.08-7.85-13.18-4.31-7.28-8.44-14.69-12.99-21.82-2.01-3.15-1.99-5.61.1-8.59,1.99-2.84,3.56-5.98,5.51-9.3Z"/>
</svg>